<svg xmlns="http://www.w3.org/2000/svg" viewBox="0 0 100 100">
  <circle cx="50" cy="50" r="50" fill="#29ABE2"/>
  <polygon points="42,20 58,14 58,78 42,78" fill="white"/>
  <rect x="43" y="22" width="14" height="2" fill="#29ABE2"/>
  <rect x="43" y="27" width="14" height="2" fill="#29ABE2"/>
  <rect x="43" y="32" width="14" height="2" fill="#29ABE2"/>
  <rect x="43" y="37" width="14" height="2" fill="#29ABE2"/>
  <rect x="43" y="42" width="14" height="2" fill="#29ABE2"/>
  <rect x="43" y="47" width="14" height="2" fill="#29ABE2"/>
  <rect x="43" y="52" width="14" height="2" fill="#29ABE2"/>
  <rect x="43" y="57" width="14" height="2" fill="#29ABE2"/>
  <rect x="43" y="62" width="14" height="2" fill="#29ABE2"/>
  <rect x="43" y="67" width="14" height="2" fill="#29ABE2"/>
  <rect x="43" y="72" width="14" height="2" fill="#29ABE2"/>
  <polygon points="22,35 42,28 42,78 22,78" fill="white"/>
  <rect x="25" y="35" width="2" height="43" fill="#29ABE2"/>
  <rect x="30" y="33" width="2" height="45" fill="#29ABE2"/>
  <rect x="35" y="31" width="2" height="47" fill="#29ABE2"/>
  <polygon points="58,28 74,35 74,78 58,78" fill="white"/>
  <rect x="61" y="31" width="2" height="47" fill="#29ABE2"/>
  <rect x="66" y="33" width="2" height="45" fill="#29ABE2"/>
  <rect x="71" y="35" width="2" height="43" fill="#29ABE2"/>
</svg>